<svg id="Layer_5" enable-background="new 0 0 64 64" height="512" viewBox="0 0 64 64" width="512" xmlns="http://www.w3.org/2000/svg"><g><g><g><path d="m30 45c0 1.66-5.03 3-10 3s-10-1.34-10-3c0-1.04 1.59-1.96 4-2.49l.06-.02c.22.87 1.01 1.51 1.94 1.51h8c.93 0 1.72-.64 1.94-1.51l.06.02c2.41.53 4 1.45 4 2.49z" fill="#969faa"/></g><g><path d="m26 38v4c0 .17-.02.34-.06.49-.22.87-1.01 1.51-1.94 1.51h-8c-.93 0-1.72-.64-1.94-1.51-.04-.15-.06-.32-.06-.49v-4z" fill="#aab2bd"/></g><g><path d="m6 38c-2.21 0-4-1.79-4-4v-4h36v4c0 2.21-1.79 4-4 4h-8-12z" fill="#ccd1d9"/></g><g><path d="m34 12h-28c-2.21 0-4 1.79-4 4v14h36v-14c0-2.21-1.79-4-4-4z" fill="#69d6f4"/></g><g><path d="m62 48v4c0 1.1-.9 2-2 2h-26c-1.1 0-2-.9-2-2v-4c0-1.1.9-2 2-2h26c1.1 0 2 .9 2 2z" fill="#fcd770"/></g><g><path d="m32 44v-4c0-1.1.9-2 2-2h10 16c1.1 0 2 .9 2 2v4c0 1.1-.9 2-2 2h-26c-1.1 0-2-.9-2-2z" fill="#fcd770"/></g><g><path d="m32 60v-4c0-1.1.9-2 2-2h26c1.1 0 2 .9 2 2v4c0 1.1-.9 2-2 2h-26c-1.1 0-2-.9-2-2z" fill="#fcd770"/></g><g><path d="m60 30v8h-16v-8c0-1.1.9-2 2-2h6 6c1.1 0 2 .9 2 2z" fill="#e6e9ed"/></g><g><path d="m60 4v16c0 1.1-.9 2-2 2h-6-6c-1.1 0-2-.9-2-2v-14-2c0-1.1.9-2 2-2h12c1.1 0 2 .9 2 2z" fill="#e6e9ed"/></g><g><path d="m28 12v8c0 1.1-.9 2-2 2h-12c-1.1 0-2-.9-2-2v-8-8c0-1.1.9-2 2-2h12c1.1 0 2 .9 2 2v2z" fill="#e6e9ed"/></g></g><g><path d="m43 57h2v2h-2z"/><path d="m35 57h2v2h-2z"/><path d="m39 57h2v2h-2z"/><path d="m35 41h2v2h-2z"/><path d="m39 41h2v2h-2z"/><path d="m43 41h2v2h-2z"/><path d="m53 49h2v2h-2z"/><path d="m49 49h2v2h-2z"/><path d="m57 49h2v2h-2z"/><path d="m9 33h2v2h-2z"/><path d="m13 33h2v2h-2z"/><path d="m5 33h2v2h-2z"/><path d="m47 31h10v2h-10z"/><path d="m15 5h10v2h-10z"/><path d="m23 9h2v2h-2z"/><path d="m15 9h6v2h-6z"/><path d="m15 13h10v2h-10z"/><path d="m15 17h10v2h-10z"/><path d="m47 17h10v2h-10z"/><path d="m47 13h2v2h-2z"/><path d="m51 13h6v2h-6z"/><path d="m47 9h10v2h-10z"/><path d="m47 5h10v2h-10z"/><path d="m63 40c0-1.302-.839-2.402-2-2.816v-7.184c0-1.654-1.346-3-3-3h-5v-4h5c1.654 0 3-1.346 3-3v-16c0-1.654-1.346-3-3-3h-12c-1.654 0-3 1.346-3 3v1h-14v-1c0-1.654-1.346-3-3-3h-12c-1.654 0-3 1.346-3 3v7h-5c-2.757 0-5 2.243-5 5v18c0 2.757 2.243 5 5 5h7v2.733c-2.579.713-4 1.856-4 3.267 0 2.914 6.747 4 11 4s11-1.086 11-4c0-1.411-1.421-2.554-4-3.267v-2.733h4.184c-.112.314-.184.648-.184 1v4c0 .771.301 1.468.78 2-.48.532-.78 1.229-.78 2v4c0 .771.301 1.468.78 2-.48.532-.78 1.229-.78 2v4c0 1.654 1.346 3 3 3h26c1.654 0 3-1.346 3-3v-4c0-.771-.301-1.468-.78-2 .48-.532.78-1.229.78-2v-4c0-.771-.301-1.468-.78-2 .48-.532.78-1.229.78-2zm-4-10v7h-14v-7c0-.551.449-1 1-1h12c.551 0 1 .449 1 1zm-14-26c0-.551.449-1 1-1h12c.551 0 1 .449 1 1v16c0 .551-.449 1-1 1h-12c-.551 0-1-.449-1-1zm-2 3v13c0 1.654 1.346 3 3 3h5v4h-5c-1.654 0-3 1.346-3 3v7h-5.026c.635-.838 1.026-1.87 1.026-3v-18c0-2.757-2.243-5-5-5h-5v-4zm-30-3c0-.551.449-1 1-1h12c.551 0 1 .449 1 1v16c0 .551-.449 1-1 1h-12c-.551 0-1-.449-1-1zm-7 9h5v7c0 1.654 1.346 3 3 3h12c1.654 0 3-1.346 3-3v-7h5c1.654 0 3 1.346 3 3v13h-34v-13c0-1.654 1.346-3 3-3zm-3 21v-3h34v3c0 1.654-1.346 3-3 3h-28c-1.654 0-3-1.346-3-3zm26.007 10.954c-.278.702-4.003 2.046-9.007 2.046s-8.729-1.344-9-2c0-.112.495-.777 2.506-1.336.539.804 1.455 1.336 2.494 1.336h8c1.039 0 1.955-.532 2.494-1.336 2.011.558 2.507 1.22 2.513 1.29zm-4.007-2.954c0 .552-.449 1-1 1h-8c-.551 0-1-.448-1-1v-3h10zm35-3c.551 0 1 .448 1 1v4c0 .552-.449 1-1 1h-26c-.551 0-1-.448-1-1v-4c0-.552.449-1 1-1zm1 9v4c0 .552-.449 1-1 1h-26c-.551 0-1-.448-1-1v-4c0-.552.449-1 1-1h26c.551 0 1 .448 1 1zm0 12c0 .552-.449 1-1 1h-26c-.551 0-1-.448-1-1v-4c0-.552.449-1 1-1h26c.551 0 1 .448 1 1z"/><path d="m2.293 53.293 1.414 1.414 1.293-1.293v9.586h2v-9.586l1.293 1.293 1.414-1.414-3.707-3.707z"/><path d="m12.293 53.293 1.414 1.414 1.293-1.293v9.586h2v-9.586l1.293 1.293 1.414-1.414-3.707-3.707z"/><path d="m22.293 53.293 1.414 1.414 1.293-1.293v9.586h2v-9.586l1.293 1.293 1.414-1.414-3.707-3.707z"/></g></g></svg>